<mxfile host="app.diagrams.net" agent="Mozilla/5.0 (Windows NT 10.0; Win64; x64) AppleWebKit/537.36 (KHTML, like Gecko) Chrome/137.0.0.0 Safari/537.36" version="27.0.9">
  <diagram name="Seite-1" id="7ZGZH28CaKWqP7HjTRxJ">
    <mxGraphModel dx="4100" dy="1852" grid="1" gridSize="10" guides="1" tooltips="1" connect="1" arrows="1" fold="1" page="1" pageScale="1" pageWidth="827" pageHeight="1169" math="0" shadow="0">
      <root>
        <mxCell id="0" />
        <mxCell id="1" parent="0" />
        <mxCell id="gtbVg4Q-vgPY787Ot35W-4" value="" style="swimlane;whiteSpace=wrap;html=1;startSize=30;" vertex="1" parent="1">
          <mxGeometry x="143" y="90" width="527" height="1570" as="geometry" />
        </mxCell>
        <mxCell id="gtbVg4Q-vgPY787Ot35W-237" style="edgeStyle=orthogonalEdgeStyle;rounded=0;orthogonalLoop=1;jettySize=auto;html=1;exitX=1;exitY=0.5;exitDx=0;exitDy=0;entryX=1;entryY=0.5;entryDx=0;entryDy=0;" edge="1" parent="gtbVg4Q-vgPY787Ot35W-4" source="gtbVg4Q-vgPY787Ot35W-8" target="gtbVg4Q-vgPY787Ot35W-91">
          <mxGeometry relative="1" as="geometry" />
        </mxCell>
        <mxCell id="gtbVg4Q-vgPY787Ot35W-8" value="Kontakt" style="rounded=0;whiteSpace=wrap;html=1;" vertex="1" parent="gtbVg4Q-vgPY787Ot35W-4">
          <mxGeometry x="460" width="60" height="30" as="geometry" />
        </mxCell>
        <mxCell id="gtbVg4Q-vgPY787Ot35W-7" value="Über mich" style="rounded=0;whiteSpace=wrap;html=1;" vertex="1" parent="gtbVg4Q-vgPY787Ot35W-4">
          <mxGeometry x="400" width="60" height="30" as="geometry" />
        </mxCell>
        <mxCell id="gtbVg4Q-vgPY787Ot35W-6" value="Projekte" style="rounded=0;whiteSpace=wrap;html=1;" vertex="1" parent="gtbVg4Q-vgPY787Ot35W-4">
          <mxGeometry x="340" width="60" height="30" as="geometry" />
        </mxCell>
        <mxCell id="gtbVg4Q-vgPY787Ot35W-5" value="Home" style="rounded=0;whiteSpace=wrap;html=1;" vertex="1" parent="gtbVg4Q-vgPY787Ot35W-4">
          <mxGeometry x="280" width="60" height="30" as="geometry" />
        </mxCell>
        <mxCell id="gtbVg4Q-vgPY787Ot35W-10" value="" style="rounded=0;whiteSpace=wrap;html=1;" vertex="1" parent="gtbVg4Q-vgPY787Ot35W-4">
          <mxGeometry x="17" y="50" width="493" height="270" as="geometry" />
        </mxCell>
        <mxCell id="gtbVg4Q-vgPY787Ot35W-12" value="[Bild]" style="whiteSpace=wrap;html=1;aspect=fixed;" vertex="1" parent="gtbVg4Q-vgPY787Ot35W-4">
          <mxGeometry x="297" y="80" width="190" height="190" as="geometry" />
        </mxCell>
        <mxCell id="gtbVg4Q-vgPY787Ot35W-11" value="Grundinfos über mich" style="rounded=0;whiteSpace=wrap;html=1;" vertex="1" parent="gtbVg4Q-vgPY787Ot35W-4">
          <mxGeometry x="47" y="80" width="203" height="190" as="geometry" />
        </mxCell>
        <mxCell id="gtbVg4Q-vgPY787Ot35W-13" value="" style="rounded=0;whiteSpace=wrap;html=1;" vertex="1" parent="gtbVg4Q-vgPY787Ot35W-4">
          <mxGeometry x="17" y="330" width="493" height="160" as="geometry" />
        </mxCell>
        <mxCell id="gtbVg4Q-vgPY787Ot35W-14" value="Skills" style="rounded=0;whiteSpace=wrap;html=1;" vertex="1" parent="gtbVg4Q-vgPY787Ot35W-4">
          <mxGeometry x="163.5" y="350" width="200" height="20" as="geometry" />
        </mxCell>
        <mxCell id="gtbVg4Q-vgPY787Ot35W-15" value="Coding" style="whiteSpace=wrap;html=1;aspect=fixed;" vertex="1" parent="gtbVg4Q-vgPY787Ot35W-4">
          <mxGeometry x="47" y="380" width="80" height="80" as="geometry" />
        </mxCell>
        <mxCell id="gtbVg4Q-vgPY787Ot35W-16" value="Gaming" style="whiteSpace=wrap;html=1;aspect=fixed;" vertex="1" parent="gtbVg4Q-vgPY787Ot35W-4">
          <mxGeometry x="163.5" y="380" width="80" height="80" as="geometry" />
        </mxCell>
        <mxCell id="gtbVg4Q-vgPY787Ot35W-17" value="Musik" style="whiteSpace=wrap;html=1;aspect=fixed;" vertex="1" parent="gtbVg4Q-vgPY787Ot35W-4">
          <mxGeometry x="283.5" y="380" width="80" height="80" as="geometry" />
        </mxCell>
        <mxCell id="gtbVg4Q-vgPY787Ot35W-18" value="Schule" style="whiteSpace=wrap;html=1;aspect=fixed;" vertex="1" parent="gtbVg4Q-vgPY787Ot35W-4">
          <mxGeometry x="400" y="380" width="80" height="80" as="geometry" />
        </mxCell>
        <mxCell id="gtbVg4Q-vgPY787Ot35W-19" value="" style="rounded=0;whiteSpace=wrap;html=1;" vertex="1" parent="gtbVg4Q-vgPY787Ot35W-4">
          <mxGeometry x="17" y="500" width="493" height="270" as="geometry" />
        </mxCell>
        <mxCell id="gtbVg4Q-vgPY787Ot35W-21" value="Projekte" style="rounded=0;whiteSpace=wrap;html=1;" vertex="1" parent="gtbVg4Q-vgPY787Ot35W-4">
          <mxGeometry x="163.5" y="520" width="200" height="20" as="geometry" />
        </mxCell>
        <mxCell id="gtbVg4Q-vgPY787Ot35W-24" value="" style="rounded=0;whiteSpace=wrap;html=1;" vertex="1" parent="gtbVg4Q-vgPY787Ot35W-4">
          <mxGeometry x="47" y="560" width="120" height="130" as="geometry" />
        </mxCell>
        <mxCell id="gtbVg4Q-vgPY787Ot35W-27" value="[Bild]" style="whiteSpace=wrap;html=1;aspect=fixed;" vertex="1" parent="gtbVg4Q-vgPY787Ot35W-4">
          <mxGeometry x="72" y="570" width="70" height="70" as="geometry" />
        </mxCell>
        <mxCell id="gtbVg4Q-vgPY787Ot35W-28" value="Beschreibung" style="rounded=0;whiteSpace=wrap;html=1;" vertex="1" parent="gtbVg4Q-vgPY787Ot35W-4">
          <mxGeometry x="67" y="650" width="83" height="30" as="geometry" />
        </mxCell>
        <mxCell id="gtbVg4Q-vgPY787Ot35W-29" value="" style="rounded=0;whiteSpace=wrap;html=1;" vertex="1" parent="gtbVg4Q-vgPY787Ot35W-4">
          <mxGeometry x="203.5" y="560" width="120" height="130" as="geometry" />
        </mxCell>
        <mxCell id="gtbVg4Q-vgPY787Ot35W-30" value="[Bild]" style="whiteSpace=wrap;html=1;aspect=fixed;" vertex="1" parent="gtbVg4Q-vgPY787Ot35W-4">
          <mxGeometry x="228.5" y="570" width="70" height="70" as="geometry" />
        </mxCell>
        <mxCell id="gtbVg4Q-vgPY787Ot35W-31" value="Beschreibung" style="rounded=0;whiteSpace=wrap;html=1;" vertex="1" parent="gtbVg4Q-vgPY787Ot35W-4">
          <mxGeometry x="223.5" y="650" width="83" height="30" as="geometry" />
        </mxCell>
        <mxCell id="gtbVg4Q-vgPY787Ot35W-32" value="" style="rounded=0;whiteSpace=wrap;html=1;" vertex="1" parent="gtbVg4Q-vgPY787Ot35W-4">
          <mxGeometry x="360" y="560" width="120" height="130" as="geometry" />
        </mxCell>
        <mxCell id="gtbVg4Q-vgPY787Ot35W-33" value="[Bild]" style="whiteSpace=wrap;html=1;aspect=fixed;" vertex="1" parent="gtbVg4Q-vgPY787Ot35W-4">
          <mxGeometry x="385" y="570" width="70" height="70" as="geometry" />
        </mxCell>
        <mxCell id="gtbVg4Q-vgPY787Ot35W-34" value="Beschreibung" style="rounded=0;whiteSpace=wrap;html=1;" vertex="1" parent="gtbVg4Q-vgPY787Ot35W-4">
          <mxGeometry x="380" y="650" width="83" height="30" as="geometry" />
        </mxCell>
        <mxCell id="gtbVg4Q-vgPY787Ot35W-36" value="Alle Projekte ansehen" style="rounded=0;whiteSpace=wrap;html=1;" vertex="1" parent="gtbVg4Q-vgPY787Ot35W-4">
          <mxGeometry x="203.5" y="710" width="120" height="30" as="geometry" />
        </mxCell>
        <mxCell id="gtbVg4Q-vgPY787Ot35W-37" value="" style="rounded=0;whiteSpace=wrap;html=1;" vertex="1" parent="gtbVg4Q-vgPY787Ot35W-4">
          <mxGeometry x="18.5" y="780" width="493" height="130" as="geometry" />
        </mxCell>
        <mxCell id="gtbVg4Q-vgPY787Ot35W-38" value="Newsletter" style="rounded=0;whiteSpace=wrap;html=1;" vertex="1" parent="gtbVg4Q-vgPY787Ot35W-4">
          <mxGeometry x="203.5" y="790" width="120" height="30" as="geometry" />
        </mxCell>
        <mxCell id="gtbVg4Q-vgPY787Ot35W-39" value="Eingabe Feld Email" style="rounded=0;whiteSpace=wrap;html=1;" vertex="1" parent="gtbVg4Q-vgPY787Ot35W-4">
          <mxGeometry x="203.5" y="840" width="120" height="20" as="geometry" />
        </mxCell>
        <mxCell id="gtbVg4Q-vgPY787Ot35W-40" value="Anmelde-Button" style="rounded=0;whiteSpace=wrap;html=1;" vertex="1" parent="gtbVg4Q-vgPY787Ot35W-4">
          <mxGeometry x="203.5" y="870" width="120" height="20" as="geometry" />
        </mxCell>
        <mxCell id="gtbVg4Q-vgPY787Ot35W-41" value="" style="rounded=0;whiteSpace=wrap;html=1;" vertex="1" parent="gtbVg4Q-vgPY787Ot35W-4">
          <mxGeometry x="18.5" y="920" width="493" height="180" as="geometry" />
        </mxCell>
        <mxCell id="gtbVg4Q-vgPY787Ot35W-42" value="Häufig gestellte Fragen" style="rounded=0;whiteSpace=wrap;html=1;" vertex="1" parent="gtbVg4Q-vgPY787Ot35W-4">
          <mxGeometry x="165" y="930" width="200" height="20" as="geometry" />
        </mxCell>
        <mxCell id="gtbVg4Q-vgPY787Ot35W-43" value="" style="whiteSpace=wrap;html=1;aspect=fixed;" vertex="1" parent="gtbVg4Q-vgPY787Ot35W-4">
          <mxGeometry x="47" y="970" width="100" height="100" as="geometry" />
        </mxCell>
        <mxCell id="gtbVg4Q-vgPY787Ot35W-79" value="Titel/Frage" style="rounded=0;whiteSpace=wrap;html=1;" vertex="1" parent="gtbVg4Q-vgPY787Ot35W-4">
          <mxGeometry x="57" y="980" width="83" height="20" as="geometry" />
        </mxCell>
        <mxCell id="gtbVg4Q-vgPY787Ot35W-80" value="Antwort auf Frage" style="rounded=0;whiteSpace=wrap;html=1;" vertex="1" parent="gtbVg4Q-vgPY787Ot35W-4">
          <mxGeometry x="57" y="1010" width="83" height="50" as="geometry" />
        </mxCell>
        <mxCell id="gtbVg4Q-vgPY787Ot35W-81" value="" style="whiteSpace=wrap;html=1;aspect=fixed;" vertex="1" parent="gtbVg4Q-vgPY787Ot35W-4">
          <mxGeometry x="215" y="970" width="100" height="100" as="geometry" />
        </mxCell>
        <mxCell id="gtbVg4Q-vgPY787Ot35W-82" value="Titel/Frage" style="rounded=0;whiteSpace=wrap;html=1;" vertex="1" parent="gtbVg4Q-vgPY787Ot35W-4">
          <mxGeometry x="225" y="980" width="83" height="20" as="geometry" />
        </mxCell>
        <mxCell id="gtbVg4Q-vgPY787Ot35W-83" value="Antwort auf Frage" style="rounded=0;whiteSpace=wrap;html=1;" vertex="1" parent="gtbVg4Q-vgPY787Ot35W-4">
          <mxGeometry x="225" y="1010" width="83" height="50" as="geometry" />
        </mxCell>
        <mxCell id="gtbVg4Q-vgPY787Ot35W-87" value="" style="whiteSpace=wrap;html=1;aspect=fixed;" vertex="1" parent="gtbVg4Q-vgPY787Ot35W-4">
          <mxGeometry x="385" y="970" width="100" height="100" as="geometry" />
        </mxCell>
        <mxCell id="gtbVg4Q-vgPY787Ot35W-88" value="Titel/Frage" style="rounded=0;whiteSpace=wrap;html=1;" vertex="1" parent="gtbVg4Q-vgPY787Ot35W-4">
          <mxGeometry x="395" y="980" width="83" height="20" as="geometry" />
        </mxCell>
        <mxCell id="gtbVg4Q-vgPY787Ot35W-89" value="Antwort auf Frage" style="rounded=0;whiteSpace=wrap;html=1;" vertex="1" parent="gtbVg4Q-vgPY787Ot35W-4">
          <mxGeometry x="395" y="1010" width="83" height="50" as="geometry" />
        </mxCell>
        <mxCell id="gtbVg4Q-vgPY787Ot35W-91" value="" style="rounded=0;whiteSpace=wrap;html=1;" vertex="1" parent="gtbVg4Q-vgPY787Ot35W-4">
          <mxGeometry x="18.5" y="1110" width="493" height="340" as="geometry" />
        </mxCell>
        <mxCell id="gtbVg4Q-vgPY787Ot35W-93" value="&lt;span style=&quot;color: rgba(0, 0, 0, 0); font-family: monospace; font-size: 0px; text-align: start; text-wrap-mode: nowrap;&quot;&gt;%3CmxGraphModel%3E%3Croot%3E%3CmxCell%20id%3D%220%22%2F%3E%3CmxCell%20id%3D%221%22%20parent%3D%220%22%2F%3E%3CmxCell%20id%3D%222%22%20value%3D%22%22%20style%3D%22rounded%3D0%3BwhiteSpace%3Dwrap%3Bhtml%3D1%3B%22%20vertex%3D%221%22%20parent%3D%221%22%3E%3CmxGeometry%20x%3D%22161.5%22%20y%3D%221010%22%20width%3D%22493%22%20height%3D%22180%22%20as%3D%22geometry%22%2F%3E%3C%2FmxCell%3E%3C%2Froot%3E%3C%2FmxGraphModel%3E&lt;/span&gt;&lt;span style=&quot;color: rgba(0, 0, 0, 0); font-family: monospace; font-size: 0px; text-align: start; text-wrap-mode: nowrap;&quot;&gt;%3CmxGraphModel%3E%3Croot%3E%3CmxCell%20id%3D%220%22%2F%3E%3CmxCell%20id%3D%221%22%20parent%3D%220%22%2F%3E%3CmxCell%20id%3D%222%22%20value%3D%22%22%20style%3D%22rounded%3D0%3BwhiteSpace%3Dwrap%3Bhtml%3D1%3B%22%20vertex%3D%221%22%20parent%3D%221%22%3E%3CmxGeometry%20x%3D%22161.5%22%20y%3D%221010%22%20width%3D%22493%22%20height%3D%22180%22%20as%3D%22geometry%22%2F%3E%3C%2FmxCell%3E%3C%2Froot%3E%3C%2FmxGraphModel%3E&lt;/span&gt;" style="rounded=0;whiteSpace=wrap;html=1;" vertex="1" parent="gtbVg4Q-vgPY787Ot35W-4">
          <mxGeometry x="38.5" y="1140" width="211.5" height="280" as="geometry" />
        </mxCell>
        <mxCell id="gtbVg4Q-vgPY787Ot35W-95" value="&lt;span style=&quot;text-wrap-mode: nowrap; color: rgba(0, 0, 0, 0); font-family: monospace; font-size: 0px; text-align: start;&quot;&gt;%3CmxGraphModel%3E%3Croot%3E%3CmxCell%20id%3D%220%22%2F%3E%3CmxCell%20id%3D%221%22%20parent%3D%220%22%2F%3E%3CmxCell%20id%3D%222%22%20value%3D%22%22%20style%3D%22rounded%3D0%3BwhiteSpace%3Dwrap%3Bhtml%3D1%3B%22%20vertex%3D%221%22%20parent%3D%221%22%3E%3CmxGeometry%20x%3D%22161.5%22%20y%3D%221010%22%20width%3D%22493%22%20height%3D%22180%22%20as%3D%22geometry%22%2F%3E%3C%2FmxCell%3E%3C%2Froot%3E%3C%2FmxGraphModel%3E&lt;/span&gt;&lt;span style=&quot;text-wrap-mode: nowrap; color: rgba(0, 0, 0, 0); font-family: monospace; font-size: 0px; text-align: start;&quot;&gt;%3CmxGraphModel%3E%3Croot%3E%3CmxCell%20id%3D%220%22%2F%3E%3CmxCell%20id%3D%221%22%20parent%3D%220%22%2F%3E%3CmxCell%20id%3D%222%22%20value%3D%22%22%20style%3D%22rounded%3D0%3BwhiteSpace%3Dwrap%3Bhtml%3D1%3B%22%20vertex%3D%221%22%20parent%3D%221%22%3E%3CmxGeometry%20x%3D%22161.5%22%20y%3D%221010%22%20width%3D%22493%22%20height%3D%22180%22%20as%3D%22geometry%22%2F%3E%3C%2FmxCell%3E%3C%2Froot%3E%3C%2FmxGraphModel%3E&lt;/span&gt;" style="rounded=0;whiteSpace=wrap;html=1;" vertex="1" parent="gtbVg4Q-vgPY787Ot35W-4">
          <mxGeometry x="283.5" y="1140" width="211.5" height="140" as="geometry" />
        </mxCell>
        <mxCell id="gtbVg4Q-vgPY787Ot35W-97" value="Kontakt" style="rounded=0;whiteSpace=wrap;html=1;" vertex="1" parent="gtbVg4Q-vgPY787Ot35W-4">
          <mxGeometry x="60.5" y="1150" width="163" height="20" as="geometry" />
        </mxCell>
        <mxCell id="gtbVg4Q-vgPY787Ot35W-98" value="Kontaktinfos" style="rounded=0;whiteSpace=wrap;html=1;" vertex="1" parent="gtbVg4Q-vgPY787Ot35W-4">
          <mxGeometry x="306.5" y="1150" width="163" height="20" as="geometry" />
        </mxCell>
        <mxCell id="gtbVg4Q-vgPY787Ot35W-99" value="&lt;span style=&quot;text-wrap-mode: nowrap; color: rgba(0, 0, 0, 0); font-family: monospace; font-size: 0px; text-align: start;&quot;&gt;%3CmxGraphModel%3E%3Croot%3E%3CmxCell%20id%3D%220%22%2F%3E%3CmxCell%20id%3D%221%22%20parent%3D%220%22%2F%3E%3CmxCell%20id%3D%222%22%20value%3D%22%22%20style%3D%22rounded%3D0%3BwhiteSpace%3Dwrap%3Bhtml%3D1%3B%22%20vertex%3D%221%22%20parent%3D%221%22%3E%3CmxGeometry%20x%3D%22161.5%22%20y%3D%221010%22%20width%3D%22493%22%20height%3D%22180%22%20as%3D%22geometry%22%2F%3E%3C%2FmxCell%3E%3C%2Froot%3E%3C%2FmxGraphModel%3E&lt;/span&gt;&lt;span style=&quot;text-wrap-mode: nowrap; color: rgba(0, 0, 0, 0); font-family: monospace; font-size: 0px; text-align: start;&quot;&gt;%3CmxGraphModel%3E%3Croot%3E%3CmxCell%20id%3D%220%22%2F%3E%3CmxCell%20id%3D%221%22%20parent%3D%220%22%2F%3E%3CmxCell%20id%3D%222%22%20value%3D%22%22%20style%3D%22rounded%3D0%3BwhiteSpace%3Dwrap%3Bhtml%3D1%3B%22%20vertex%3D%221%22%20parent%3D%221%22%3E%3CmxGeometry%20x%3D%22161.5%22%20y%3D%221010%22%20width%3D%22493%22%20height%3D%22180%22%20as%3D%22geometry%22%2F%3E%3C%2FmxCell%3E%3C%2Froot%3E%3C%2FmxGraphModel%3E&lt;/span&gt;" style="rounded=0;whiteSpace=wrap;html=1;" vertex="1" parent="gtbVg4Q-vgPY787Ot35W-4">
          <mxGeometry x="283.5" y="1300" width="211.5" height="120" as="geometry" />
        </mxCell>
        <mxCell id="gtbVg4Q-vgPY787Ot35W-100" value="Social Media" style="rounded=0;whiteSpace=wrap;html=1;" vertex="1" parent="gtbVg4Q-vgPY787Ot35W-4">
          <mxGeometry x="306.5" y="1310" width="163" height="20" as="geometry" />
        </mxCell>
        <mxCell id="gtbVg4Q-vgPY787Ot35W-101" value="Discord" style="rounded=0;whiteSpace=wrap;html=1;" vertex="1" parent="gtbVg4Q-vgPY787Ot35W-4">
          <mxGeometry x="306.5" y="1350" width="43.5" height="20" as="geometry" />
        </mxCell>
        <mxCell id="gtbVg4Q-vgPY787Ot35W-103" value="Tiktok" style="rounded=0;whiteSpace=wrap;html=1;" vertex="1" parent="gtbVg4Q-vgPY787Ot35W-4">
          <mxGeometry x="363.5" y="1350" width="43.5" height="20" as="geometry" />
        </mxCell>
        <mxCell id="gtbVg4Q-vgPY787Ot35W-105" value="Instagram" style="rounded=0;whiteSpace=wrap;html=1;" vertex="1" parent="gtbVg4Q-vgPY787Ot35W-4">
          <mxGeometry x="419.5" y="1350" width="43.5" height="20" as="geometry" />
        </mxCell>
        <mxCell id="gtbVg4Q-vgPY787Ot35W-106" value="Email" style="rounded=0;whiteSpace=wrap;html=1;" vertex="1" parent="gtbVg4Q-vgPY787Ot35W-4">
          <mxGeometry x="306.5" y="1180" width="163.5" height="20" as="geometry" />
        </mxCell>
        <mxCell id="gtbVg4Q-vgPY787Ot35W-107" value="Telefon" style="rounded=0;whiteSpace=wrap;html=1;" vertex="1" parent="gtbVg4Q-vgPY787Ot35W-4">
          <mxGeometry x="306.5" y="1210" width="163.5" height="20" as="geometry" />
        </mxCell>
        <mxCell id="gtbVg4Q-vgPY787Ot35W-108" value="Github" style="rounded=0;whiteSpace=wrap;html=1;" vertex="1" parent="gtbVg4Q-vgPY787Ot35W-4">
          <mxGeometry x="306.5" y="1240" width="163.5" height="20" as="geometry" />
        </mxCell>
        <mxCell id="gtbVg4Q-vgPY787Ot35W-110" value="Eingabe Name" style="rounded=0;whiteSpace=wrap;html=1;" vertex="1" parent="gtbVg4Q-vgPY787Ot35W-4">
          <mxGeometry x="60.5" y="1180" width="169.5" height="30" as="geometry" />
        </mxCell>
        <mxCell id="gtbVg4Q-vgPY787Ot35W-111" value="Eingabe Email" style="rounded=0;whiteSpace=wrap;html=1;" vertex="1" parent="gtbVg4Q-vgPY787Ot35W-4">
          <mxGeometry x="60.5" y="1220" width="169.5" height="30" as="geometry" />
        </mxCell>
        <mxCell id="gtbVg4Q-vgPY787Ot35W-112" value="Auswählen Betreff" style="rounded=0;whiteSpace=wrap;html=1;" vertex="1" parent="gtbVg4Q-vgPY787Ot35W-4">
          <mxGeometry x="60.5" y="1270" width="169.5" height="20" as="geometry" />
        </mxCell>
        <mxCell id="gtbVg4Q-vgPY787Ot35W-113" value="Nachricht Eingeben" style="rounded=0;whiteSpace=wrap;html=1;" vertex="1" parent="gtbVg4Q-vgPY787Ot35W-4">
          <mxGeometry x="60.5" y="1300" width="169.5" height="100" as="geometry" />
        </mxCell>
        <mxCell id="gtbVg4Q-vgPY787Ot35W-238" value="Footer" style="rounded=0;whiteSpace=wrap;html=1;" vertex="1" parent="gtbVg4Q-vgPY787Ot35W-4">
          <mxGeometry x="18.5" y="1460" width="491.5" height="90" as="geometry" />
        </mxCell>
        <mxCell id="gtbVg4Q-vgPY787Ot35W-114" value="" style="swimlane;whiteSpace=wrap;html=1;startSize=30;" vertex="1" parent="1">
          <mxGeometry x="770" y="90" width="520" height="610" as="geometry" />
        </mxCell>
        <mxCell id="gtbVg4Q-vgPY787Ot35W-115" value="Kontakt" style="rounded=0;whiteSpace=wrap;html=1;" vertex="1" parent="gtbVg4Q-vgPY787Ot35W-114">
          <mxGeometry x="460" width="60" height="30" as="geometry" />
        </mxCell>
        <mxCell id="gtbVg4Q-vgPY787Ot35W-116" value="Über mich" style="rounded=0;whiteSpace=wrap;html=1;" vertex="1" parent="gtbVg4Q-vgPY787Ot35W-114">
          <mxGeometry x="400" width="60" height="30" as="geometry" />
        </mxCell>
        <mxCell id="gtbVg4Q-vgPY787Ot35W-117" value="Projekte" style="rounded=0;whiteSpace=wrap;html=1;" vertex="1" parent="gtbVg4Q-vgPY787Ot35W-114">
          <mxGeometry x="340" width="60" height="30" as="geometry" />
        </mxCell>
        <mxCell id="gtbVg4Q-vgPY787Ot35W-118" value="Home" style="rounded=0;whiteSpace=wrap;html=1;" vertex="1" parent="gtbVg4Q-vgPY787Ot35W-114">
          <mxGeometry x="280" width="60" height="30" as="geometry" />
        </mxCell>
        <mxCell id="gtbVg4Q-vgPY787Ot35W-119" value="" style="rounded=0;whiteSpace=wrap;html=1;" vertex="1" parent="gtbVg4Q-vgPY787Ot35W-114">
          <mxGeometry x="17" y="50" width="493" height="550" as="geometry" />
        </mxCell>
        <mxCell id="gtbVg4Q-vgPY787Ot35W-239" value="" style="rounded=0;whiteSpace=wrap;html=1;" vertex="1" parent="gtbVg4Q-vgPY787Ot35W-114">
          <mxGeometry x="57" y="170" width="133" height="200" as="geometry" />
        </mxCell>
        <mxCell id="gtbVg4Q-vgPY787Ot35W-240" value="[Bild]" style="whiteSpace=wrap;html=1;aspect=fixed;" vertex="1" parent="gtbVg4Q-vgPY787Ot35W-114">
          <mxGeometry x="93.5" y="180" width="60" height="60" as="geometry" />
        </mxCell>
        <mxCell id="gtbVg4Q-vgPY787Ot35W-241" value="Beschreibung" style="rounded=0;whiteSpace=wrap;html=1;" vertex="1" parent="gtbVg4Q-vgPY787Ot35W-114">
          <mxGeometry x="77" y="300" width="93" height="40" as="geometry" />
        </mxCell>
        <mxCell id="gtbVg4Q-vgPY787Ot35W-242" value="Meine Projekte" style="rounded=0;whiteSpace=wrap;html=1;" vertex="1" parent="gtbVg4Q-vgPY787Ot35W-114">
          <mxGeometry x="148.5" y="60" width="230" height="30" as="geometry" />
        </mxCell>
        <mxCell id="gtbVg4Q-vgPY787Ot35W-243" value="" style="rounded=0;whiteSpace=wrap;html=1;" vertex="1" parent="gtbVg4Q-vgPY787Ot35W-114">
          <mxGeometry x="133.5" y="100" width="260" height="40" as="geometry" />
        </mxCell>
        <mxCell id="gtbVg4Q-vgPY787Ot35W-244" value="Alle" style="rounded=0;whiteSpace=wrap;html=1;" vertex="1" parent="gtbVg4Q-vgPY787Ot35W-114">
          <mxGeometry x="143.5" y="110" width="40" height="20" as="geometry" />
        </mxCell>
        <mxCell id="gtbVg4Q-vgPY787Ot35W-245" value="Coding" style="rounded=0;whiteSpace=wrap;html=1;" vertex="1" parent="gtbVg4Q-vgPY787Ot35W-114">
          <mxGeometry x="193.5" y="110" width="40" height="20" as="geometry" />
        </mxCell>
        <mxCell id="gtbVg4Q-vgPY787Ot35W-247" value="Gaming" style="rounded=0;whiteSpace=wrap;html=1;" vertex="1" parent="gtbVg4Q-vgPY787Ot35W-114">
          <mxGeometry x="243.5" y="110" width="40" height="20" as="geometry" />
        </mxCell>
        <mxCell id="gtbVg4Q-vgPY787Ot35W-248" value="Musik" style="rounded=0;whiteSpace=wrap;html=1;" vertex="1" parent="gtbVg4Q-vgPY787Ot35W-114">
          <mxGeometry x="293.5" y="110" width="40" height="20" as="geometry" />
        </mxCell>
        <mxCell id="gtbVg4Q-vgPY787Ot35W-249" value="Schule" style="rounded=0;whiteSpace=wrap;html=1;" vertex="1" parent="gtbVg4Q-vgPY787Ot35W-114">
          <mxGeometry x="343.5" y="110" width="40" height="20" as="geometry" />
        </mxCell>
        <mxCell id="gtbVg4Q-vgPY787Ot35W-250" value="Titel" style="rounded=0;whiteSpace=wrap;html=1;" vertex="1" parent="gtbVg4Q-vgPY787Ot35W-114">
          <mxGeometry x="77" y="270" width="93" height="20" as="geometry" />
        </mxCell>
        <mxCell id="gtbVg4Q-vgPY787Ot35W-251" value="&lt;div style=&quot;text-align: justify;&quot;&gt;&lt;span style=&quot;font-size: 6px; background-color: transparent; color: light-dark(rgb(0, 0, 0), rgb(255, 255, 255));&quot;&gt;Kategorie&lt;/span&gt;&lt;/div&gt;" style="rounded=0;whiteSpace=wrap;html=1;align=center;" vertex="1" parent="gtbVg4Q-vgPY787Ot35W-114">
          <mxGeometry x="77" y="250" width="93" height="16" as="geometry" />
        </mxCell>
        <mxCell id="gtbVg4Q-vgPY787Ot35W-257" value="&lt;font style=&quot;font-size: 6px;&quot;&gt;Details Ansehen&lt;/font&gt;" style="rounded=0;whiteSpace=wrap;html=1;" vertex="1" parent="gtbVg4Q-vgPY787Ot35W-114">
          <mxGeometry x="77" y="350" width="63" height="10" as="geometry" />
        </mxCell>
        <mxCell id="gtbVg4Q-vgPY787Ot35W-270" value="" style="rounded=0;whiteSpace=wrap;html=1;" vertex="1" parent="gtbVg4Q-vgPY787Ot35W-114">
          <mxGeometry x="197" y="170" width="133" height="200" as="geometry" />
        </mxCell>
        <mxCell id="gtbVg4Q-vgPY787Ot35W-271" value="[Bild]" style="whiteSpace=wrap;html=1;aspect=fixed;" vertex="1" parent="gtbVg4Q-vgPY787Ot35W-114">
          <mxGeometry x="233.5" y="180" width="60" height="60" as="geometry" />
        </mxCell>
        <mxCell id="gtbVg4Q-vgPY787Ot35W-272" value="Beschreibung" style="rounded=0;whiteSpace=wrap;html=1;" vertex="1" parent="gtbVg4Q-vgPY787Ot35W-114">
          <mxGeometry x="217" y="300" width="93" height="40" as="geometry" />
        </mxCell>
        <mxCell id="gtbVg4Q-vgPY787Ot35W-273" value="Titel" style="rounded=0;whiteSpace=wrap;html=1;" vertex="1" parent="gtbVg4Q-vgPY787Ot35W-114">
          <mxGeometry x="217" y="270" width="93" height="20" as="geometry" />
        </mxCell>
        <mxCell id="gtbVg4Q-vgPY787Ot35W-274" value="&lt;div style=&quot;text-align: justify;&quot;&gt;&lt;span style=&quot;font-size: 6px; background-color: transparent; color: light-dark(rgb(0, 0, 0), rgb(255, 255, 255));&quot;&gt;Kategorie&lt;/span&gt;&lt;/div&gt;" style="rounded=0;whiteSpace=wrap;html=1;align=center;" vertex="1" parent="gtbVg4Q-vgPY787Ot35W-114">
          <mxGeometry x="217" y="250" width="93" height="16" as="geometry" />
        </mxCell>
        <mxCell id="gtbVg4Q-vgPY787Ot35W-275" value="&lt;font style=&quot;font-size: 6px;&quot;&gt;Details Ansehen&lt;/font&gt;" style="rounded=0;whiteSpace=wrap;html=1;" vertex="1" parent="gtbVg4Q-vgPY787Ot35W-114">
          <mxGeometry x="217" y="350" width="63" height="10" as="geometry" />
        </mxCell>
        <mxCell id="gtbVg4Q-vgPY787Ot35W-276" value="" style="rounded=0;whiteSpace=wrap;html=1;" vertex="1" parent="gtbVg4Q-vgPY787Ot35W-114">
          <mxGeometry x="338" y="170" width="133" height="200" as="geometry" />
        </mxCell>
        <mxCell id="gtbVg4Q-vgPY787Ot35W-277" value="[Bild]" style="whiteSpace=wrap;html=1;aspect=fixed;" vertex="1" parent="gtbVg4Q-vgPY787Ot35W-114">
          <mxGeometry x="374.5" y="180" width="60" height="60" as="geometry" />
        </mxCell>
        <mxCell id="gtbVg4Q-vgPY787Ot35W-278" value="Beschreibung" style="rounded=0;whiteSpace=wrap;html=1;" vertex="1" parent="gtbVg4Q-vgPY787Ot35W-114">
          <mxGeometry x="358" y="300" width="93" height="40" as="geometry" />
        </mxCell>
        <mxCell id="gtbVg4Q-vgPY787Ot35W-279" value="Titel" style="rounded=0;whiteSpace=wrap;html=1;" vertex="1" parent="gtbVg4Q-vgPY787Ot35W-114">
          <mxGeometry x="358" y="270" width="93" height="20" as="geometry" />
        </mxCell>
        <mxCell id="gtbVg4Q-vgPY787Ot35W-280" value="&lt;div style=&quot;text-align: justify;&quot;&gt;&lt;span style=&quot;font-size: 6px; background-color: transparent; color: light-dark(rgb(0, 0, 0), rgb(255, 255, 255));&quot;&gt;Kategorie&lt;/span&gt;&lt;/div&gt;" style="rounded=0;whiteSpace=wrap;html=1;align=center;" vertex="1" parent="gtbVg4Q-vgPY787Ot35W-114">
          <mxGeometry x="358" y="250" width="93" height="16" as="geometry" />
        </mxCell>
        <mxCell id="gtbVg4Q-vgPY787Ot35W-281" value="&lt;font style=&quot;font-size: 6px;&quot;&gt;Details Ansehen&lt;/font&gt;" style="rounded=0;whiteSpace=wrap;html=1;" vertex="1" parent="gtbVg4Q-vgPY787Ot35W-114">
          <mxGeometry x="358" y="350" width="63" height="10" as="geometry" />
        </mxCell>
        <mxCell id="gtbVg4Q-vgPY787Ot35W-282" value="" style="rounded=0;whiteSpace=wrap;html=1;" vertex="1" parent="gtbVg4Q-vgPY787Ot35W-114">
          <mxGeometry x="57" y="380" width="133" height="200" as="geometry" />
        </mxCell>
        <mxCell id="gtbVg4Q-vgPY787Ot35W-283" value="[Bild]" style="whiteSpace=wrap;html=1;aspect=fixed;" vertex="1" parent="gtbVg4Q-vgPY787Ot35W-114">
          <mxGeometry x="93.5" y="390" width="60" height="60" as="geometry" />
        </mxCell>
        <mxCell id="gtbVg4Q-vgPY787Ot35W-284" value="Beschreibung" style="rounded=0;whiteSpace=wrap;html=1;" vertex="1" parent="gtbVg4Q-vgPY787Ot35W-114">
          <mxGeometry x="77" y="510" width="93" height="40" as="geometry" />
        </mxCell>
        <mxCell id="gtbVg4Q-vgPY787Ot35W-285" value="Titel" style="rounded=0;whiteSpace=wrap;html=1;" vertex="1" parent="gtbVg4Q-vgPY787Ot35W-114">
          <mxGeometry x="77" y="480" width="93" height="20" as="geometry" />
        </mxCell>
        <mxCell id="gtbVg4Q-vgPY787Ot35W-286" value="&lt;div style=&quot;text-align: justify;&quot;&gt;&lt;span style=&quot;font-size: 6px; background-color: transparent; color: light-dark(rgb(0, 0, 0), rgb(255, 255, 255));&quot;&gt;Kategorie&lt;/span&gt;&lt;/div&gt;" style="rounded=0;whiteSpace=wrap;html=1;align=center;" vertex="1" parent="gtbVg4Q-vgPY787Ot35W-114">
          <mxGeometry x="77" y="460" width="93" height="16" as="geometry" />
        </mxCell>
        <mxCell id="gtbVg4Q-vgPY787Ot35W-287" value="&lt;font style=&quot;font-size: 6px;&quot;&gt;Details Ansehen&lt;/font&gt;" style="rounded=0;whiteSpace=wrap;html=1;" vertex="1" parent="gtbVg4Q-vgPY787Ot35W-114">
          <mxGeometry x="77" y="560" width="63" height="10" as="geometry" />
        </mxCell>
        <mxCell id="gtbVg4Q-vgPY787Ot35W-288" value="" style="rounded=0;whiteSpace=wrap;html=1;" vertex="1" parent="gtbVg4Q-vgPY787Ot35W-114">
          <mxGeometry x="197" y="380" width="133" height="200" as="geometry" />
        </mxCell>
        <mxCell id="gtbVg4Q-vgPY787Ot35W-289" value="[Bild]" style="whiteSpace=wrap;html=1;aspect=fixed;" vertex="1" parent="gtbVg4Q-vgPY787Ot35W-114">
          <mxGeometry x="233.5" y="390" width="60" height="60" as="geometry" />
        </mxCell>
        <mxCell id="gtbVg4Q-vgPY787Ot35W-290" value="Beschreibung" style="rounded=0;whiteSpace=wrap;html=1;" vertex="1" parent="gtbVg4Q-vgPY787Ot35W-114">
          <mxGeometry x="217" y="510" width="93" height="40" as="geometry" />
        </mxCell>
        <mxCell id="gtbVg4Q-vgPY787Ot35W-291" value="Titel" style="rounded=0;whiteSpace=wrap;html=1;" vertex="1" parent="gtbVg4Q-vgPY787Ot35W-114">
          <mxGeometry x="217" y="480" width="93" height="20" as="geometry" />
        </mxCell>
        <mxCell id="gtbVg4Q-vgPY787Ot35W-292" value="&lt;div style=&quot;text-align: justify;&quot;&gt;&lt;span style=&quot;font-size: 6px; background-color: transparent; color: light-dark(rgb(0, 0, 0), rgb(255, 255, 255));&quot;&gt;Kategorie&lt;/span&gt;&lt;/div&gt;" style="rounded=0;whiteSpace=wrap;html=1;align=center;" vertex="1" parent="gtbVg4Q-vgPY787Ot35W-114">
          <mxGeometry x="217" y="460" width="93" height="16" as="geometry" />
        </mxCell>
        <mxCell id="gtbVg4Q-vgPY787Ot35W-293" value="&lt;font style=&quot;font-size: 6px;&quot;&gt;Details Ansehen&lt;/font&gt;" style="rounded=0;whiteSpace=wrap;html=1;" vertex="1" parent="gtbVg4Q-vgPY787Ot35W-114">
          <mxGeometry x="217" y="560" width="63" height="10" as="geometry" />
        </mxCell>
        <mxCell id="gtbVg4Q-vgPY787Ot35W-294" value="" style="rounded=0;whiteSpace=wrap;html=1;" vertex="1" parent="gtbVg4Q-vgPY787Ot35W-114">
          <mxGeometry x="338" y="380" width="133" height="200" as="geometry" />
        </mxCell>
        <mxCell id="gtbVg4Q-vgPY787Ot35W-295" value="[Bild]" style="whiteSpace=wrap;html=1;aspect=fixed;" vertex="1" parent="gtbVg4Q-vgPY787Ot35W-114">
          <mxGeometry x="374.5" y="390" width="60" height="60" as="geometry" />
        </mxCell>
        <mxCell id="gtbVg4Q-vgPY787Ot35W-296" value="Beschreibung" style="rounded=0;whiteSpace=wrap;html=1;" vertex="1" parent="gtbVg4Q-vgPY787Ot35W-114">
          <mxGeometry x="358" y="510" width="93" height="40" as="geometry" />
        </mxCell>
        <mxCell id="gtbVg4Q-vgPY787Ot35W-297" value="Titel" style="rounded=0;whiteSpace=wrap;html=1;" vertex="1" parent="gtbVg4Q-vgPY787Ot35W-114">
          <mxGeometry x="358" y="480" width="93" height="20" as="geometry" />
        </mxCell>
        <mxCell id="gtbVg4Q-vgPY787Ot35W-298" value="&lt;div style=&quot;text-align: justify;&quot;&gt;&lt;span style=&quot;font-size: 6px; background-color: transparent; color: light-dark(rgb(0, 0, 0), rgb(255, 255, 255));&quot;&gt;Kategorie&lt;/span&gt;&lt;/div&gt;" style="rounded=0;whiteSpace=wrap;html=1;align=center;" vertex="1" parent="gtbVg4Q-vgPY787Ot35W-114">
          <mxGeometry x="358" y="460" width="93" height="16" as="geometry" />
        </mxCell>
        <mxCell id="gtbVg4Q-vgPY787Ot35W-299" value="&lt;font style=&quot;font-size: 6px;&quot;&gt;Details Ansehen&lt;/font&gt;" style="rounded=0;whiteSpace=wrap;html=1;" vertex="1" parent="gtbVg4Q-vgPY787Ot35W-114">
          <mxGeometry x="358" y="560" width="63" height="10" as="geometry" />
        </mxCell>
        <mxCell id="gtbVg4Q-vgPY787Ot35W-172" value="&lt;b&gt;&lt;font style=&quot;font-size: 36px;&quot;&gt;Homepage&lt;/font&gt;&lt;/b&gt;" style="text;html=1;align=center;verticalAlign=middle;whiteSpace=wrap;rounded=0;" vertex="1" parent="1">
          <mxGeometry x="264" y="50" width="300" height="30" as="geometry" />
        </mxCell>
        <mxCell id="gtbVg4Q-vgPY787Ot35W-174" value="&lt;span style=&quot;font-size: 36px;&quot;&gt;&lt;b&gt;Projekte&lt;/b&gt;&lt;/span&gt;" style="text;html=1;align=center;verticalAlign=middle;whiteSpace=wrap;rounded=0;" vertex="1" parent="1">
          <mxGeometry x="883.5" y="50" width="300" height="30" as="geometry" />
        </mxCell>
        <mxCell id="gtbVg4Q-vgPY787Ot35W-175" value="" style="swimlane;whiteSpace=wrap;html=1;startSize=30;" vertex="1" parent="1">
          <mxGeometry x="1390" y="80" width="527" height="1080" as="geometry" />
        </mxCell>
        <mxCell id="gtbVg4Q-vgPY787Ot35W-176" value="Kontakt" style="rounded=0;whiteSpace=wrap;html=1;" vertex="1" parent="gtbVg4Q-vgPY787Ot35W-175">
          <mxGeometry x="460" width="60" height="30" as="geometry" />
        </mxCell>
        <mxCell id="gtbVg4Q-vgPY787Ot35W-177" value="Über mich" style="rounded=0;whiteSpace=wrap;html=1;" vertex="1" parent="gtbVg4Q-vgPY787Ot35W-175">
          <mxGeometry x="400" width="60" height="30" as="geometry" />
        </mxCell>
        <mxCell id="gtbVg4Q-vgPY787Ot35W-178" value="Projekte" style="rounded=0;whiteSpace=wrap;html=1;" vertex="1" parent="gtbVg4Q-vgPY787Ot35W-175">
          <mxGeometry x="340" width="60" height="30" as="geometry" />
        </mxCell>
        <mxCell id="gtbVg4Q-vgPY787Ot35W-179" value="Home" style="rounded=0;whiteSpace=wrap;html=1;" vertex="1" parent="gtbVg4Q-vgPY787Ot35W-175">
          <mxGeometry x="280" width="60" height="30" as="geometry" />
        </mxCell>
        <mxCell id="gtbVg4Q-vgPY787Ot35W-180" value="" style="rounded=0;whiteSpace=wrap;html=1;" vertex="1" parent="gtbVg4Q-vgPY787Ot35W-175">
          <mxGeometry x="17" y="50" width="493" height="1010" as="geometry" />
        </mxCell>
        <mxCell id="gtbVg4Q-vgPY787Ot35W-404" value="Titel und Infos über mich" style="rounded=0;whiteSpace=wrap;html=1;" vertex="1" parent="gtbVg4Q-vgPY787Ot35W-175">
          <mxGeometry x="30" y="80" width="300" height="60" as="geometry" />
        </mxCell>
        <mxCell id="gtbVg4Q-vgPY787Ot35W-405" value="Leidenschaften" style="rounded=0;whiteSpace=wrap;html=1;" vertex="1" parent="gtbVg4Q-vgPY787Ot35W-175">
          <mxGeometry x="30" y="160" width="300" height="60" as="geometry" />
        </mxCell>
        <mxCell id="gtbVg4Q-vgPY787Ot35W-406" value="Werdegang" style="rounded=0;whiteSpace=wrap;html=1;" vertex="1" parent="gtbVg4Q-vgPY787Ot35W-175">
          <mxGeometry x="30" y="240" width="300" height="60" as="geometry" />
        </mxCell>
        <mxCell id="gtbVg4Q-vgPY787Ot35W-407" value="Persöhnliche Daten" style="rounded=0;whiteSpace=wrap;html=1;" vertex="1" parent="gtbVg4Q-vgPY787Ot35W-175">
          <mxGeometry x="360" y="80" width="140" height="140" as="geometry" />
        </mxCell>
        <mxCell id="gtbVg4Q-vgPY787Ot35W-418" value="Technische Skills" style="rounded=0;whiteSpace=wrap;html=1;" vertex="1" parent="gtbVg4Q-vgPY787Ot35W-175">
          <mxGeometry x="360" y="240" width="140" height="90" as="geometry" />
        </mxCell>
        <mxCell id="gtbVg4Q-vgPY787Ot35W-419" value="Interessen" style="rounded=0;whiteSpace=wrap;html=1;" vertex="1" parent="gtbVg4Q-vgPY787Ot35W-175">
          <mxGeometry x="360" y="340" width="140" height="50" as="geometry" />
        </mxCell>
        <mxCell id="gtbVg4Q-vgPY787Ot35W-420" value="" style="rounded=0;whiteSpace=wrap;html=1;" vertex="1" parent="gtbVg4Q-vgPY787Ot35W-175">
          <mxGeometry x="30" y="430" width="470" height="500" as="geometry" />
        </mxCell>
        <mxCell id="gtbVg4Q-vgPY787Ot35W-421" value="Mein Werdegang" style="rounded=0;whiteSpace=wrap;html=1;" vertex="1" parent="gtbVg4Q-vgPY787Ot35W-175">
          <mxGeometry x="168.5" y="445" width="190" height="35" as="geometry" />
        </mxCell>
        <mxCell id="gtbVg4Q-vgPY787Ot35W-424" value="" style="rounded=0;whiteSpace=wrap;html=1;" vertex="1" parent="gtbVg4Q-vgPY787Ot35W-175">
          <mxGeometry x="130" y="520" width="260" height="70" as="geometry" />
        </mxCell>
        <mxCell id="gtbVg4Q-vgPY787Ot35W-425" value="Titel" style="rounded=0;whiteSpace=wrap;html=1;" vertex="1" parent="gtbVg4Q-vgPY787Ot35W-175">
          <mxGeometry x="142" y="530" width="236" height="20" as="geometry" />
        </mxCell>
        <mxCell id="gtbVg4Q-vgPY787Ot35W-426" value="Beschreibung" style="rounded=0;whiteSpace=wrap;html=1;" vertex="1" parent="gtbVg4Q-vgPY787Ot35W-175">
          <mxGeometry x="142" y="560" width="236" height="20" as="geometry" />
        </mxCell>
        <mxCell id="gtbVg4Q-vgPY787Ot35W-430" value="" style="rounded=0;whiteSpace=wrap;html=1;" vertex="1" parent="gtbVg4Q-vgPY787Ot35W-175">
          <mxGeometry x="130" y="610" width="260" height="70" as="geometry" />
        </mxCell>
        <mxCell id="gtbVg4Q-vgPY787Ot35W-431" value="Titel" style="rounded=0;whiteSpace=wrap;html=1;" vertex="1" parent="gtbVg4Q-vgPY787Ot35W-175">
          <mxGeometry x="142" y="620" width="236" height="20" as="geometry" />
        </mxCell>
        <mxCell id="gtbVg4Q-vgPY787Ot35W-432" value="Beschreibung" style="rounded=0;whiteSpace=wrap;html=1;" vertex="1" parent="gtbVg4Q-vgPY787Ot35W-175">
          <mxGeometry x="142" y="650" width="236" height="20" as="geometry" />
        </mxCell>
        <mxCell id="gtbVg4Q-vgPY787Ot35W-433" value="" style="rounded=0;whiteSpace=wrap;html=1;" vertex="1" parent="gtbVg4Q-vgPY787Ot35W-175">
          <mxGeometry x="130" y="700" width="260" height="70" as="geometry" />
        </mxCell>
        <mxCell id="gtbVg4Q-vgPY787Ot35W-434" value="Titel" style="rounded=0;whiteSpace=wrap;html=1;" vertex="1" parent="gtbVg4Q-vgPY787Ot35W-175">
          <mxGeometry x="142" y="710" width="236" height="20" as="geometry" />
        </mxCell>
        <mxCell id="gtbVg4Q-vgPY787Ot35W-435" value="Beschreibung" style="rounded=0;whiteSpace=wrap;html=1;" vertex="1" parent="gtbVg4Q-vgPY787Ot35W-175">
          <mxGeometry x="142" y="740" width="236" height="20" as="geometry" />
        </mxCell>
        <mxCell id="gtbVg4Q-vgPY787Ot35W-436" value="" style="rounded=0;whiteSpace=wrap;html=1;" vertex="1" parent="gtbVg4Q-vgPY787Ot35W-175">
          <mxGeometry x="130" y="790" width="260" height="70" as="geometry" />
        </mxCell>
        <mxCell id="gtbVg4Q-vgPY787Ot35W-437" value="Titel" style="rounded=0;whiteSpace=wrap;html=1;" vertex="1" parent="gtbVg4Q-vgPY787Ot35W-175">
          <mxGeometry x="142" y="800" width="236" height="20" as="geometry" />
        </mxCell>
        <mxCell id="gtbVg4Q-vgPY787Ot35W-438" value="Beschreibung" style="rounded=0;whiteSpace=wrap;html=1;" vertex="1" parent="gtbVg4Q-vgPY787Ot35W-175">
          <mxGeometry x="142" y="830" width="236" height="20" as="geometry" />
        </mxCell>
        <mxCell id="gtbVg4Q-vgPY787Ot35W-441" value="" style="ellipse;whiteSpace=wrap;html=1;aspect=fixed;fillColor=#000000;" vertex="1" parent="gtbVg4Q-vgPY787Ot35W-175">
          <mxGeometry x="90" y="550" width="10" height="10" as="geometry" />
        </mxCell>
        <mxCell id="gtbVg4Q-vgPY787Ot35W-442" value="" style="ellipse;whiteSpace=wrap;html=1;aspect=fixed;fillColor=#000000;" vertex="1" parent="gtbVg4Q-vgPY787Ot35W-175">
          <mxGeometry x="90" y="730" width="10" height="10" as="geometry" />
        </mxCell>
        <mxCell id="gtbVg4Q-vgPY787Ot35W-445" value="" style="ellipse;whiteSpace=wrap;html=1;aspect=fixed;fillColor=#000000;" vertex="1" parent="gtbVg4Q-vgPY787Ot35W-175">
          <mxGeometry x="90" y="820" width="10" height="10" as="geometry" />
        </mxCell>
        <mxCell id="gtbVg4Q-vgPY787Ot35W-448" value="" style="endArrow=none;html=1;rounded=0;exitX=0.5;exitY=0;exitDx=0;exitDy=0;entryX=0.5;entryY=1;entryDx=0;entryDy=0;" edge="1" parent="gtbVg4Q-vgPY787Ot35W-175" source="gtbVg4Q-vgPY787Ot35W-445" target="gtbVg4Q-vgPY787Ot35W-442">
          <mxGeometry width="50" height="50" relative="1" as="geometry">
            <mxPoint x="-40" y="680" as="sourcePoint" />
            <mxPoint x="10" y="630" as="targetPoint" />
          </mxGeometry>
        </mxCell>
        <mxCell id="gtbVg4Q-vgPY787Ot35W-451" value="Footer" style="rounded=0;whiteSpace=wrap;html=1;" vertex="1" parent="gtbVg4Q-vgPY787Ot35W-175">
          <mxGeometry x="28.13000000000011" y="960" width="470.75" height="90" as="geometry" />
        </mxCell>
        <mxCell id="gtbVg4Q-vgPY787Ot35W-233" value="&lt;span style=&quot;font-size: 36px;&quot;&gt;&lt;b&gt;Über Mich&lt;/b&gt;&lt;/span&gt;" style="text;html=1;align=center;verticalAlign=middle;whiteSpace=wrap;rounded=0;" vertex="1" parent="1">
          <mxGeometry x="1503.5" y="50" width="300" height="30" as="geometry" />
        </mxCell>
        <mxCell id="gtbVg4Q-vgPY787Ot35W-235" style="edgeStyle=orthogonalEdgeStyle;rounded=0;orthogonalLoop=1;jettySize=auto;html=1;exitX=0.5;exitY=0;exitDx=0;exitDy=0;entryX=0.5;entryY=0;entryDx=0;entryDy=0;" edge="1" parent="1" source="gtbVg4Q-vgPY787Ot35W-6" target="gtbVg4Q-vgPY787Ot35W-174">
          <mxGeometry relative="1" as="geometry" />
        </mxCell>
        <mxCell id="gtbVg4Q-vgPY787Ot35W-236" style="edgeStyle=orthogonalEdgeStyle;rounded=0;orthogonalLoop=1;jettySize=auto;html=1;exitX=0.5;exitY=0;exitDx=0;exitDy=0;entryX=0.5;entryY=0;entryDx=0;entryDy=0;" edge="1" parent="1" source="gtbVg4Q-vgPY787Ot35W-7" target="gtbVg4Q-vgPY787Ot35W-233">
          <mxGeometry relative="1" as="geometry" />
        </mxCell>
        <mxCell id="gtbVg4Q-vgPY787Ot35W-300" value="" style="swimlane;whiteSpace=wrap;html=1;startSize=30;" vertex="1" parent="1">
          <mxGeometry x="770" y="850" width="520" height="640" as="geometry" />
        </mxCell>
        <mxCell id="gtbVg4Q-vgPY787Ot35W-301" value="Kontakt" style="rounded=0;whiteSpace=wrap;html=1;" vertex="1" parent="gtbVg4Q-vgPY787Ot35W-300">
          <mxGeometry x="460" width="60" height="30" as="geometry" />
        </mxCell>
        <mxCell id="gtbVg4Q-vgPY787Ot35W-302" value="Über mich" style="rounded=0;whiteSpace=wrap;html=1;" vertex="1" parent="gtbVg4Q-vgPY787Ot35W-300">
          <mxGeometry x="400" width="60" height="30" as="geometry" />
        </mxCell>
        <mxCell id="gtbVg4Q-vgPY787Ot35W-303" value="Projekte" style="rounded=0;whiteSpace=wrap;html=1;" vertex="1" parent="gtbVg4Q-vgPY787Ot35W-300">
          <mxGeometry x="340" width="60" height="30" as="geometry" />
        </mxCell>
        <mxCell id="gtbVg4Q-vgPY787Ot35W-304" value="Home" style="rounded=0;whiteSpace=wrap;html=1;" vertex="1" parent="gtbVg4Q-vgPY787Ot35W-300">
          <mxGeometry x="280" width="60" height="30" as="geometry" />
        </mxCell>
        <mxCell id="gtbVg4Q-vgPY787Ot35W-305" value="" style="rounded=0;whiteSpace=wrap;html=1;" vertex="1" parent="gtbVg4Q-vgPY787Ot35W-300">
          <mxGeometry x="17" y="50" width="493" height="580" as="geometry" />
        </mxCell>
        <mxCell id="gtbVg4Q-vgPY787Ot35W-308" value="Beschreibung &amp;amp; Details" style="rounded=0;whiteSpace=wrap;html=1;" vertex="1" parent="gtbVg4Q-vgPY787Ot35W-300">
          <mxGeometry x="40" y="350" width="450" height="110" as="geometry" />
        </mxCell>
        <mxCell id="gtbVg4Q-vgPY787Ot35W-316" value="Titel" style="rounded=0;whiteSpace=wrap;html=1;" vertex="1" parent="gtbVg4Q-vgPY787Ot35W-300">
          <mxGeometry x="40" y="310" width="210" height="20" as="geometry" />
        </mxCell>
        <mxCell id="gtbVg4Q-vgPY787Ot35W-318" value="&lt;span style=&quot;font-size: 6px;&quot;&gt;Zurück zur projektübersicht&lt;/span&gt;" style="rounded=0;whiteSpace=wrap;html=1;" vertex="1" parent="gtbVg4Q-vgPY787Ot35W-300">
          <mxGeometry x="40" y="480" width="113" height="20" as="geometry" />
        </mxCell>
        <mxCell id="gtbVg4Q-vgPY787Ot35W-350" value="[Bild]" style="rounded=0;whiteSpace=wrap;html=1;" vertex="1" parent="gtbVg4Q-vgPY787Ot35W-300">
          <mxGeometry x="40" y="80" width="450" height="210" as="geometry" />
        </mxCell>
        <mxCell id="gtbVg4Q-vgPY787Ot35W-351" value="Footer" style="rounded=0;whiteSpace=wrap;html=1;" vertex="1" parent="gtbVg4Q-vgPY787Ot35W-300">
          <mxGeometry x="28.130000000000003" y="530" width="470.75" height="90" as="geometry" />
        </mxCell>
        <mxCell id="gtbVg4Q-vgPY787Ot35W-401" value="&lt;span style=&quot;font-size: 36px;&quot;&gt;&lt;b&gt;Projekt Details&lt;/b&gt;&lt;/span&gt;" style="text;html=1;align=center;verticalAlign=middle;whiteSpace=wrap;rounded=0;" vertex="1" parent="1">
          <mxGeometry x="883.5" y="800" width="300" height="30" as="geometry" />
        </mxCell>
        <mxCell id="gtbVg4Q-vgPY787Ot35W-403" style="edgeStyle=orthogonalEdgeStyle;rounded=0;orthogonalLoop=1;jettySize=auto;html=1;entryX=0.5;entryY=0;entryDx=0;entryDy=0;" edge="1" parent="1" source="gtbVg4Q-vgPY787Ot35W-257" target="gtbVg4Q-vgPY787Ot35W-401">
          <mxGeometry relative="1" as="geometry">
            <Array as="points">
              <mxPoint x="750" y="445" />
              <mxPoint x="750" y="720" />
              <mxPoint x="1034" y="720" />
            </Array>
          </mxGeometry>
        </mxCell>
        <mxCell id="gtbVg4Q-vgPY787Ot35W-444" value="" style="ellipse;whiteSpace=wrap;html=1;aspect=fixed;fillColor=#000000;" vertex="1" parent="1">
          <mxGeometry x="1480" y="720" width="10" height="10" as="geometry" />
        </mxCell>
        <mxCell id="gtbVg4Q-vgPY787Ot35W-447" value="" style="endArrow=none;html=1;rounded=0;entryX=0.5;entryY=1;entryDx=0;entryDy=0;exitX=0.5;exitY=0;exitDx=0;exitDy=0;" edge="1" parent="1" source="gtbVg4Q-vgPY787Ot35W-444" target="gtbVg4Q-vgPY787Ot35W-441">
          <mxGeometry width="50" height="50" relative="1" as="geometry">
            <mxPoint x="1350" y="710" as="sourcePoint" />
            <mxPoint x="1400" y="660" as="targetPoint" />
          </mxGeometry>
        </mxCell>
        <mxCell id="gtbVg4Q-vgPY787Ot35W-449" value="" style="endArrow=none;html=1;rounded=0;entryX=0.5;entryY=1;entryDx=0;entryDy=0;exitX=0.5;exitY=0;exitDx=0;exitDy=0;" edge="1" parent="1" source="gtbVg4Q-vgPY787Ot35W-442" target="gtbVg4Q-vgPY787Ot35W-444">
          <mxGeometry width="50" height="50" relative="1" as="geometry">
            <mxPoint x="1350" y="760" as="sourcePoint" />
            <mxPoint x="1400" y="710" as="targetPoint" />
          </mxGeometry>
        </mxCell>
      </root>
    </mxGraphModel>
  </diagram>
</mxfile>
